HIERARCHY
ROOT Hips
{
  OFFSET 42.9163 95.8663 21.8196
  CHANNELS 6 Xposition Yposition Zposition Zrotation Xrotation Yrotation
  JOINT spine
  {
    OFFSET 0 8.13249 0.467659
    CHANNELS 3 Zrotation Xrotation Yrotation
    JOINT spine1
    {
      OFFSET 0 10.3498 0
      CHANNELS 3 Zrotation Xrotation Yrotation
      JOINT spine2
      {
        OFFSET 0 9.91699 0
        CHANNELS 3 Zrotation Xrotation Yrotation
        JOINT Neck
        {
          OFFSET 0 25.461 1.2139
          CHANNELS 3 Zrotation Xrotation Yrotation
          JOINT Head
          {
            OFFSET 0 7.69245 0
            CHANNELS 3 Zrotation Xrotation Yrotation
            End Site
            {
              OFFSET 0 18.62 -6.14063
            }
          }
        }
        JOINT RightShoulder
        {
          OFFSET -4.17575 10.7096 -0.581445
          CHANNELS 3 Zrotation Xrotation Yrotation
          JOINT RightArm
          {
            OFFSET 0 14.0466 0
            CHANNELS 3 Zrotation Xrotation Yrotation
            JOINT RightArmRoll
            {
              OFFSET 0 7.09099 0
              CHANNELS 3 Zrotation Xrotation Yrotation
              JOINT RightForeArm
              {
                OFFSET 0 20.6535 0
                CHANNELS 3 Zrotation Xrotation Yrotation
                JOINT RightForeArmRoll
                {
                  OFFSET 0 7.95718 0
                  CHANNELS 3 Zrotation Xrotation Yrotation
                  JOINT RightHand
                  {
                    OFFSET 0 15.9683 0
                    CHANNELS 3 Zrotation Xrotation Yrotation
                    End Site
                    {
                      OFFSET 0 0 0
                    }
                  }
                }
              }
            }
          }
        }
        JOINT LeftShoulder
        {
          OFFSET 4.17575 10.7096 -0.581445
          CHANNELS 3 Zrotation Xrotation Yrotation
          JOINT LeftArm
          {
            OFFSET 0 14.0466 0
            CHANNELS 3 Zrotation Xrotation Yrotation
            JOINT LeftArmRoll
            {
              OFFSET 0 7.09099 0
              CHANNELS 3 Zrotation Xrotation Yrotation
              JOINT LeftForeArm
              {
                OFFSET 0 20.6535 0
                CHANNELS 3 Zrotation Xrotation Yrotation
                JOINT LeftForeArmRoll
                {
                  OFFSET 0 7.95718 0
                  CHANNELS 3 Zrotation Xrotation Yrotation
                  JOINT LeftHand
                  {
                    OFFSET 0 15.9683 0
                    CHANNELS 3 Zrotation Xrotation Yrotation
                    End Site
                    {
                      OFFSET 0 0 0
                    }
                  }
                }
              }
            }
          }
        }
      }
    }
  }
  JOINT RightUpLeg
  {
    OFFSET -7.20834 -1.32182 -1.10884
    CHANNELS 3 Zrotation Xrotation Yrotation
    JOINT RightUpLegRoll
    {
      OFFSET 0 18.7238 0
      CHANNELS 3 Zrotation Xrotation Yrotation
      JOINT RightLeg
      {
        OFFSET 0 -23.1866 0
        CHANNELS 3 Zrotation Xrotation Yrotation
        JOINT RightLegRoll
        {
          OFFSET 0 23.2624 0
          CHANNELS 3 Zrotation Xrotation Yrotation
          JOINT RightFoot
          {
            OFFSET 0 19.3621 0
            CHANNELS 3 Zrotation Xrotation Yrotation
            JOINT RightToeBase
            {
              OFFSET 0 16.1857 0
              CHANNELS 3 Zrotation Xrotation Yrotation
              End Site
              {
                OFFSET 0.00686052 7.83862 -0.903522
              }
            }
          }
        }
      }
    }
  }
  JOINT LeftUpLeg
  {
    OFFSET 7.20834 -1.32182 -1.10884
    CHANNELS 3 Zrotation Xrotation Yrotation
    JOINT LeftUpLegRoll
    {
      OFFSET 0 18.7239 0
      CHANNELS 3 Zrotation Xrotation Yrotation
      JOINT LeftLeg
      {
        OFFSET 0 23.1865 0
        CHANNELS 3 Zrotation Xrotation Yrotation
        JOINT LeftLegRoll
        {
          OFFSET 0 23.4775 0
          CHANNELS 3 Zrotation Xrotation Yrotation
          JOINT LeftFoot
          {
            OFFSET 0 19.147 0
            CHANNELS 3 Zrotation Xrotation Yrotation
            JOINT LeftToeBase
            {
              OFFSET 0 16.1857 0
              CHANNELS 3 Zrotation Xrotation Yrotation
              End Site
              {
                OFFSET -0.0307459 7.83862 -0.903522
              }
            }
          }
        }
      }
    }
  }
}
MOTION
Frames: 8
Frame Time: 0.00208333
48.6025 96.0163 14.4072 0.883168 -4.59459 1.68908 0.329114 -0.674983 0.0615338 0.658228 2.65303 0.0841832 0.658155 4.29804 0.0732023 -7.69391 11.2527 0.0440248 4.25473 -3.57961 -1.33716 55.9865 -8.23176 -5.03794 113.978 20.2337 18.4614 -1.37426e-005 4.14052e-006 1.6791e-006 6.19735 1.34885 -0.683446 3.14959e-006 1.87007e-006 -3.00054 8.02939 -4.95143 0.697667 -62.7228 -8.66496 5.46001 -108.172 16.9148 -9.78092 -1.21241e-006 1.28379e-006 2.69228e-006 -8.42035 0.0676787 1.07292 2.83376e-005 -4.73988e-006 3.02725 -8.02912 -4.95144 -0.69766 171.692 1.35579 4.9351 180 7.01576e-015 179.059 177.919 14.0246 179.689 8.9416e-007 -3.52444e-006 0.130918 -18.8724 70.6143 21.8284 8.12777 25.234 -3.48283 -173.483 -0.465993 -1.13102 4.5067e-006 -1.99009e-005 -1.02365 -0.361017 -11.9816 0.536093 4.59742e-006 -6.80646e-007 -0.158985 19.1036 70.8587 -22.0497 -8.13691 25.2388 3.48254 
48.5889 96.0185 14.4136 0.888564 -4.59749 1.70294 0.328885 -0.674297 0.0616969 0.65701 2.65447 0.0844821 0.656918 4.29948 0.0735256 -7.68747 11.2506 0.0449779 4.24632 -3.56851 -1.33598 55.9925 -8.23062 -5.03733 113.969 20.2291 18.4503 -1.37426e-005 4.14052e-006 1.6791e-006 6.20832 1.36949 -0.686039 3.14959e-006 1.87007e-006 -3.00054 8.02939 -4.95143 0.697667 -62.7203 -8.66216 5.45832 -108.165 16.9053 -9.78799 -1.21241e-006 1.28379e-006 2.69228e-006 -8.42006 0.0676787 1.07431 2.83376e-005 -4.73988e-006 3.02725 -8.02912 -4.95144 -0.69766 171.694 1.3535 4.9337 180 7.01576e-015 179.059 177.921 14.0362 179.689 8.9416e-007 -3.52444e-006 0.130905 -18.8821 70.6251 21.8401 8.12777 25.234 -3.48283 -173.483 -0.470536 -1.12946 4.5067e-006 -1.99009e-005 -1.02372 -0.358871 -11.9744 0.536383 4.59742e-006 -6.80646e-007 -0.15898 19.0981 70.853 -22.0461 -8.13691 25.2388 3.48254 
48.5765 96.0088 14.4244 0.894008 -4.6005 1.71663 0.328649 -0.673583 0.0618941 0.655708 2.65598 0.0848089 0.655596 4.30099 0.0738786 -7.68077 11.2485 0.0459546 4.23775 -3.55727 -1.33472 55.9989 -8.22922 -5.03656 113.96 20.2247 18.4401 -1.37426e-005 4.14052e-006 1.6791e-006 6.21869 1.38952 -0.688563 3.14959e-006 1.87007e-006 -3.00054 8.02939 -4.95143 0.697667 -62.7176 -8.65947 5.45668 -108.158 16.8958 -9.7951 -1.21241e-006 1.28379e-006 2.69228e-006 -8.41975 0.0676788 1.07577 2.83376e-005 -4.73988e-006 3.02725 -8.02912 -4.95144 -0.69766 171.695 1.35168 4.93178 180 7.01576e-015 179.059 177.924 14.0488 179.689 8.9416e-007 -3.52444e-006 0.130887 -18.8919 70.6364 21.8524 8.12777 25.234 -3.48283 -173.483 -0.474856 -1.12799 4.5067e-006 -1.99009e-005 -1.02378 -0.356824 -11.9681 0.536674 4.59742e-006 -6.80646e-007 -0.159017 19.093 70.8477 -22.0432 -8.13691 25.2388 3.48254 
48.5813 96.0121 14.4232 0.899486 -4.60357 1.73019 0.328408 -0.672849 0.0621151 0.654346 2.65752 0.0851553 0.654214 4.30253 0.0742523 -7.67389 11.2463 0.0469476 4.22907 -3.54591 -1.33342 56.0057 -8.22764 -5.03567 113.951 20.2205 18.4305 -1.37426e-005 4.14052e-006 1.6791e-006 6.22864 1.40911 -0.691039 3.14959e-006 1.87007e-006 -3.00054 8.02939 -4.95143 0.697667 -62.7146 -8.65685 5.45508 -108.15 16.8862 -9.80224 -1.21241e-006 1.28379e-006 2.69228e-006 -8.41941 0.0676788 1.07728 2.83376e-005 -4.73988e-006 3.02725 -8.02912 -4.95144 -0.69766 171.697 1.35019 4.9295 180 7.01576e-015 179.059 177.927 14.0623 179.688 8.9416e-007 -3.52444e-006 0.130864 -18.9018 70.6481 21.8652 8.12777 25.234 -3.48283 -173.483 -0.479019 -1.12659 4.5067e-006 -1.99009e-005 -1.02382 -0.354848 -11.9624 0.536966 4.59742e-006 -6.80646e-007 -0.159082 19.0882 70.8427 -22.0405 -8.13691 25.2388 3.48254 
48.5689 96.0219 14.4331 0.904984 -4.60669 1.74368 0.328164 -0.672105 0.0623496 0.652951 2.65909 0.0855129 0.652797 4.3041 0.0746378 -7.6669 11.2441 0.0479501 4.22032 -3.5345 -1.33209 56.0126 -8.22596 -5.03472 113.942 20.2163 18.4213 -1.37426e-005 4.14052e-006 1.6791e-006 6.23835 1.42846 -0.693487 3.14959e-006 1.87007e-006 -3.00054 8.02939 -4.95143 0.697667 -62.7115 -8.65426 5.4535 -108.143 16.8767 -9.80939 -1.21241e-006 1.28379e-006 2.69228e-006 -8.41907 0.0676789 1.07882 2.83376e-005 -4.73988e-006 3.02725 -8.02912 -4.95144 -0.69766 171.699 1.34888 4.92702 180 7.01576e-015 179.06 177.931 14.0761 179.688 8.9416e-007 -3.52444e-006 0.130839 -18.9118 70.66 21.8782 8.12777 25.234 -3.48283 -173.483 -0.483092 -1.12522 4.5067e-006 -1.99009e-005 -1.02387 -0.352912 -11.9569 0.537259 4.59742e-006 -6.80646e-007 -0.159164 19.0836 70.8379 -22.0382 -8.13691 25.2388 3.48254 
48.5658 96.0192 14.4345 0.910489 -4.60981 1.75715 0.327919 -0.671357 0.0625875 0.651547 2.66067 0.0858733 0.651372 4.30568 0.0750263 -7.65989 11.2418 0.0489549 4.21156 -3.52307 -1.33075 56.0195 -8.22425 -5.03375 113.933 20.2121 18.4122 -1.37426e-005 4.14052e-006 1.6791e-006 6.248 1.44775 -0.695929 3.14959e-006 1.87007e-006 -3.00054 8.02939 -4.95143 0.697667 -62.7084 -8.65169 5.45193 -108.136 16.8671 -9.81655 -1.21241e-006 1.28379e-006 2.69228e-006 -8.41873 0.067679 1.08037 2.83376e-005 -4.73988e-006 3.02725 -8.02912 -4.95144 -0.69766 171.701 1.34761 4.92448 180 7.01576e-015 179.06 177.934 14.0901 179.687 8.9416e-007 -3.52444e-006 0.130813 -18.9219 70.672 21.8913 8.12777 25.234 -3.48283 -173.483 -0.487143 -1.12386 4.5067e-006 -1.99009e-005 -1.02391 -0.350986 -11.9516 0.537552 4.59742e-006 -6.80646e-007 -0.15925 19.079 70.8332 -22.0358 -8.13691 25.2388 3.48254 
48.5632 96.0107 14.4275 0.915985 -4.61292 1.77065 0.327676 -0.670615 0.0628187 0.65016 2.66224 0.0862282 0.649965 4.30724 0.0754089 -7.65292 11.2396 0.0499549 4.20283 -3.51167 -1.32942 56.0264 -8.22259 -5.03282 113.923 20.2079 18.4029 -1.37426e-005 4.14052e-006 1.6791e-006 6.25777 1.46716 -0.698385 3.14959e-006 1.87007e-006 -3.00054 8.02939 -4.95143 0.697667 -62.7054 -8.6491 5.45035 -108.129 16.8576 -9.8237 -1.21241e-006 1.28379e-006 2.69228e-006 -8.41839 0.067679 1.0819 2.83376e-005 -4.73988e-006 3.02725 -8.02912 -4.95144 -0.69766 171.702 1.34625 4.92205 180 7.01576e-015 179.06 177.938 14.1038 179.687 8.9416e-007 -3.52444e-006 0.130789 -18.9319 70.6839 21.9043 8.12777 25.234 -3.48283 -173.483 -0.491238 -1.12248 4.5067e-006 -1.99009e-005 -1.02395 -0.34904 -11.9461 0.537844 4.59742e-006 -6.80646e-007 -0.159328 19.0743 70.8283 -22.0334 -8.13691 25.2388 3.48254 
48.5539 96.0128 14.4334 0.92146 -4.61597 1.78425 0.327437 -0.669887 0.0630328 0.648815 2.66377 0.086569 0.648599 4.30878 0.0757767 -7.64609 11.2374 0.0509432 4.19418 -3.50035 -1.32813 56.033 -8.22106 -5.03197 113.914 20.2035 18.3931 -1.37426e-005 4.14052e-006 1.6791e-006 6.26784 1.48687 -0.700875 3.14959e-006 1.87007e-006 -3.00054 8.02939 -4.95143 0.697667 -62.7025 -8.64645 5.44874 -108.121 16.8481 -9.83083 -1.21241e-006 1.28379e-006 2.69228e-006 -8.41806 0.0676791 1.08339 2.83376e-005 -4.73988e-006 3.02725 -8.02912 -4.95144 -0.69766 171.704 1.34466 4.91987 180 7.01576e-015 179.06 177.941 14.1171 179.687 8.9416e-007 -3.52444e-006 0.130767 -18.9419 70.6955 21.917 8.12777 25.234 -3.48283 -173.483 -0.495446 -1.12106 4.5067e-006 -1.99009e-005 -1.024 -0.347044 -11.9402 0.538136 4.59742e-006 -6.80646e-007 -0.159385 19.0694 70.8233 -22.0307 -8.13691 25.2388 3.48254 
